<svg width="31419" height="14816" viewBox="0 0 31419 14816" fill="none" xmlns="http://www.w3.org/2000/svg"><path d="M2662.64 7407.67C2662.64 10767.4 4899.62 13601.9 7960.75 14507.5C8096.6 14543.7 8187.16 14670.5 8187.16 14815.3H0V0H8187.16C8187.16 135.838 8096.6 262.619 7960.75 307.898C4899.62 1213.48 2662.64 4047.96 2662.64 7407.67Z" fill="black"/><path d="M10940.3 11591.5C13261.2 11591.5 15142.6 9710.24 15142.6 7389.59C15142.6 5068.94 13261.2 3187.68 10940.3 3187.68C8619.49 3187.68 6738.07 5068.94 6738.07 7389.59C6738.07 9710.24 8619.49 11591.5 10940.3 11591.5Z" fill="black"/><path d="M16520.3 0H23249.3C24861.4 0 26283.3 307.898 27515 923.695C28746.7 1539.49 29706.7 2399.8 30395 3513.66C31083.3 4627.53 31418.4 5922.52 31418.4 7407.67C31418.4 8892.83 31074.2 10187.8 30395 11301.7C29715.7 12415.6 28746.7 13275.9 27515 13891.7C26283.3 14507.4 24861.4 14815.3 23249.3 14815.3H16520.3V0V0ZM23086.3 11999C24571.6 11999 25748.9 11582.4 26627.4 10758.3C27505.9 9934.25 27949.7 8811.33 27949.7 7407.67C27949.7 5994.96 27505.9 4881.1 26627.4 4057.01C25748.9 3232.93 24562.5 2816.37 23086.3 2816.37H19952.7V11999H23086.3Z" fill="black"/></svg>
