<svg width="154" height="73" viewBox="0 0 154 73" fill="none" xmlns="http://www.w3.org/2000/svg"><path d="M12.9887 36.1331C12.9887 52.521 23.9009 66.347 38.8335 70.7642C39.4962 70.9409 39.938 71.5594 39.938 72.2661H0V0H39.938C39.938 0.662587 39.4962 1.281 38.8335 1.50186C23.9009 5.91911 12.9887 19.7451 12.9887 36.1331Z" fill="black"/><path d="M53.368 56.541C64.6894 56.541 73.8672 47.3646 73.8672 36.045C73.8672 24.7253 64.6894 15.549 53.368 15.549C42.0467 15.549 32.8689 24.7253 32.8689 36.045C32.8689 47.3646 42.0467 56.541 53.368 56.541Z" fill="black"/><path d="M80.5876 0H113.413C121.277 0 128.213 1.50186 134.221 4.50559C140.23 7.50931 144.913 11.7057 148.27 17.1389C151.628 22.5721 153.262 28.8888 153.262 36.1331C153.262 43.3773 151.584 49.694 148.27 55.1272C144.957 60.5604 140.23 64.7568 134.221 67.7605C128.213 70.7642 121.277 72.2661 113.413 72.2661H80.5876V0V0ZM112.618 58.5285C119.863 58.5285 125.606 56.4966 129.892 52.4769C134.177 48.4572 136.342 42.9798 136.342 36.1331C136.342 29.2422 134.177 23.8089 129.892 19.7893C125.606 15.7696 119.819 13.7376 112.618 13.7376H97.3316V58.5285H112.618Z" fill="black"/></svg>
